<?xml version="1.0" encoding="UTF-8" standalone="no"?>
<svg
   viewBox="0 0 556.57343 556.57343"
   version="1.1"
   id="svg6"
   sodipodi:docname="favicon_circulo.svg"
   xml:space="preserve"
   width="556.57343"
   height="556.57343"
   inkscape:version="1.4.4 (dcaf3e7d9e, 2026-05-05)"
   xmlns:inkscape="http://www.inkscape.org/namespaces/inkscape"
   xmlns:sodipodi="http://sodipodi.sourceforge.net/DTD/sodipodi-0.dtd"
   xmlns="http://www.w3.org/2000/svg"
   xmlns:svg="http://www.w3.org/2000/svg"><defs
     id="defs6"><linearGradient
       id="gradientFill-1"
       x1="0.7414425"
       x2="590.86261"
       y1="3.6658268"
       y2="593.78699"
       gradientUnits="userSpaceOnUse"
       spreadMethod="pad"
       gradientTransform="scale(1.2219423,0.81836924)"><stop
         offset="0"
         stop-color="rgb(203,206,208)"
         stop-opacity="1"
         id="stop1" /><stop
         offset="1"
         stop-color="rgb(132,131,139)"
         stop-opacity="1"
         id="stop2" /></linearGradient><linearGradient
       id="gradientFill-2"
       x1="301.02603"
       x2="703.0675"
       y1="151.4006"
       y2="553.44208"
       gradientUnits="userSpaceOnUse"
       spreadMethod="pad"
       gradientTransform="scale(0.9899476,1.0101545)"><stop
         offset="0"
         stop-color="rgb(39,109,195)"
         stop-opacity="1"
         id="stop3" /><stop
         offset="1"
         stop-color="rgb(22,92,170)"
         stop-opacity="1"
         id="stop4" /></linearGradient><clipPath
       clipPathUnits="userSpaceOnUse"
       id="clipPath11"><rect
         style="opacity:1;fill:none;fill-opacity:1;stroke:#000000;stroke-width:0.814215;stroke-linecap:square;stroke-dasharray:none"
         id="rect12"
         width="72.645287"
         height="72.056175"
         x="-329.98984"
         y="-430.72617"
         ry="0" /></clipPath><filter
       id="mask-powermask-path-effect4068_inverse"
       inkscape:label="filtermask-powermask-path-effect4068"
       style="color-interpolation-filters:sRGB"
       height="100"
       width="100"
       x="-50"
       y="-50"><feColorMatrix
         id="mask-powermask-path-effect4068_primitive1"
         values="1"
         type="saturate"
         result="fbSourceGraphic" /><feColorMatrix
         id="mask-powermask-path-effect4068_primitive2"
         values="-1 0 0 0 1 0 -1 0 0 1 0 0 -1 0 1 0 0 0 1 0 "
         in="fbSourceGraphic" /></filter></defs><sodipodi:namedview
     id="namedview6"
     pagecolor="#ffffff"
     bordercolor="#000000"
     borderopacity="0.25"
     inkscape:showpageshadow="2"
     inkscape:pageopacity="0.0"
     inkscape:pagecheckerboard="0"
     inkscape:deskcolor="#d1d1d1"
     inkscape:zoom="0.30007844"
     inkscape:cx="444.88368"
     inkscape:cy="273.26188"
     inkscape:window-width="1140"
     inkscape:window-height="510"
     inkscape:window-x="0"
     inkscape:window-y="0"
     inkscape:window-maximized="1"
     inkscape:current-layer="svg6" /><circle
     style="fill:#121834;fill-opacity:1;stroke-width:81.6722;stroke-linecap:square"
     id="path1"
     cx="278.28671"
     cy="278.28671"
     r="278.28671" /><text
     xml:space="preserve"
     style="font-style:normal;font-variant:normal;font-weight:bold;font-stretch:normal;font-size:53.3333px;font-family:Cantarell;-inkscape-font-specification:'Cantarell Bold';writing-mode:lr-tb;direction:ltr;opacity:0.347087;fill:#000000;fill-opacity:1;stroke:none;stroke-width:3.77953;stroke-linecap:square"
     x="2834.5432"
     y="416.57605"
     id="text10"><tspan
       sodipodi:role="line"
       id="tspan10"
       x="2834.5432"
       y="416.57605" /></text><g
     id="g5"
     transform="translate(684.87044,833.57071)"><path
       d="m -573.99169,-473.6221 c 3.86607,-1.1329 7.39507,-2.57277 11.40234,-5.17585 3.00288,-1.95064 6.48075,-4.88208 8.33012,-8.15748 -72.34211,-178.00129 136.97665,-295.09383 251.76835,-192.28776 0,0 3.11781,-4.50467 6.49397,-7.87482 3.53147,-3.52519 7.53451,-6.83812 7.41268,-6.71629 -118.14231,-112.94988 -369.067,-2.38572 -285.40746,220.2122 z"
       id="path1-04-8"
       style="fill:#dbebfa;fill-opacity:1;stroke:none;stroke-width:0.133333"
       sodipodi:nodetypes="csccscc" /><path
       d="m -303.71021,-658.62078 c -4.4,6.26667 -10.93334,15.06667 -14.4,19.6 l -6.4,8.26667 3.06666,7.73333 c 1.73334,4.26667 3.6,9.73333 4.13334,12.26667 l 0.93333,4.53333 3.2,-3.86667 c 1.73333,-2.13333 9.6,-13.2 17.46667,-24.53333 33.62234,-48.72126 49.8612,-54.4796 86.1944,-58.8 v -19.86666 c -40.55228,-1.43641 -71.0319,23.85786 -94.1944,54.66666 z"
       id="path2-0"
       style="fill:#76a8d9;fill-opacity:1;stroke:none;stroke-width:0.133333"
       sodipodi:nodetypes="ccccccccccc" /><path
       d="m -261.71021,-486.08745 c -0.53334,0.26666 -0.8,-17.73333 -0.53334,-40 l 0.4,-40.53333 h -12.13333 -12 v 58.4 58.39999 l 7.46667,9.06667 7.6,9.06667 c 33.93757,-38.31767 74.75166,-113.90777 26.26666,-210.66666 6.73999,-6.9173 17.72101,-15.73415 35.12774,-16.76063 0.0515,-7.30032 -0.0669,-13.63361 0,-20.93373 -33.4834,0.17586 -53.19237,22.40434 -61.56232,33.05709 26.18517,63.08261 39.6687,95.40764 9.36792,160.90393 z"
       id="path4-2-4"
       style="fill:#ffffff;stroke:none;stroke-width:0.133333"
       sodipodi:nodetypes="cccccccccccccc" /><path
       d="m -484.64354,-610.08745 v 47.2 c 10.49028,-7.95428 30.21532,-4.22554 37.33333,-10.89587 v -51.50413 c 22.1709,1.13563 45.68383,-3.35735 66.72977,5.31321 21.29719,12.29069 19.29137,50.38326 -5.30772,57.67943 -21.32891,6.36697 -44.00913,2.23925 -65.91174,4.26768 -24.02398,-0.496 -44.92325,14.18525 -58.34978,33.15041 -18.52028,24.42786 -34.9512,56.16202 -67.41817,63.57825 -24.51196,5.27219 -27.31234,-1.75098 -25.74236,11.36529 1.56998,13.11627 -1.60795,12.3765 13.40693,10.98875 29.30981,-1.72898 56.30149,-18.0393 73.12736,-41.8345 14.16984,-19.32696 29.54922,-42.55561 55.5386,-45.64271 20.00687,-0.49172 46.91345,-9.50124 57.14374,13.21682 38.30703,47.08236 76.75838,94.04749 114.9167,141.2507 13.45251,-1.70858 40.35568,2.72378 45.18449,-3.13047 -42.33388,-51.73341 -85.17359,-103.05594 -126.91782,-155.26953 18.77939,-10.20452 36.28167,-25.24937 41.76534,-46.76049 10.3517,-34.16452 -15.44449,-72.65575 -50.41831,-77.6639 -26.84752,-4.47662 -54.19547,-1.72534 -81.28883,-2.50893 h -23.79153 z"
       id="path18-0"
       style="fill:#76a8d9;fill-opacity:1;stroke:none;stroke-width:0.133333"
       sodipodi:nodetypes="ccccccccczcccccccccccc" /><path
       d="m -315.43358,-589.3226 c 0,14.35642 -6.28797,27.92675 -15.2681,42.2425 24.82497,-25.03299 29.11782,-28.51068 44.02349,-46.75065 -4.92052,-6.16564 -4.54937,-5.81202 -12.00473,-14.36063 -0.60621,0.66548 -11.66877,12.17249 -16.75066,18.86878 z"
       id="path19-9"
       style="fill:#76a8d9;fill-opacity:1;stroke:none;stroke-width:0.133333"
       sodipodi:nodetypes="ccccc" /><path
       d="m -325.97688,-511.02078 v 17.06666 l 10.66667,12.66667 c 5.86666,6.93333 10.66666,13.06666 10.66666,13.6 0,0.66666 0.4,1.06666 1.06667,1.06666 0.53333,0 0.8,-13.73333 0.53333,-30.66666 l -0.4,-30.66667 h -11.2 -11.33333 z"
       id="path37-1"
       style="fill:#76a8d9;fill-opacity:1;stroke:none;stroke-width:0.133333" /><path
       d="m -466.91021,-512.08745 c -3.86667,1.33333 -9.33333,4 -12.4,6.13333 l -5.33333,3.73334 v 28.39999 28.53334 h 18.66666 18.66667 v -34.66667 -34.66666 h -6.26667 c -3.6,0.13333 -9.46666,1.2 -13.33333,2.53333 z"
       id="path38-9"
       style="fill:#76a8d9;fill-opacity:1;stroke:none;stroke-width:0.133333" /><path
       d="m -548.83839,-438.32196 c 29.74284,38.02957 119.62535,97.14255 226.6979,46.16959 -3.59715,-4.71435 -6.58838,-7.63634 -13.80327,-16.59391 -120.91713,51.70043 -196.04526,-41.26081 -196.04526,-41.26081 -4.1782,4.12233 -8.12759,7.81899 -16.84937,11.68513 z"
       id="path43-6"
       style="fill:#ffffff;stroke:none;stroke-width:0.133333"
       sodipodi:nodetypes="ccccc" /><path
       d="m -566.51983,-397.20989 v 9.33334 h 9.33333 9.33334 v -9.33334 -9.33333 h -9.33334 -9.33333 z"
       id="path44-2"
       style="fill:#76a8d9;fill-opacity:1;stroke:none;stroke-width:0.133333" /><path
       d="m -538.21944,-551.2867 v 6.68238 h 6.68237 6.68238 v -6.68238 -6.68237 h -6.68238 -6.68237 z"
       id="path44-4-5"
       style="fill:#96b8dc;fill-opacity:1;stroke:none;stroke-width:0.0954623" /><path
       d="m -513.48159,-569.0864 v 5.20962 h 5.20962 5.20962 v -5.20962 -5.20962 h -5.20962 -5.20962 z"
       id="path44-4-2-4"
       style="fill:#76a8d9;fill-opacity:1;stroke:none;stroke-width:0.074423" /><rect
       style="fill:#9dbbdd;fill-opacity:1;stroke:none;stroke-width:3.82848;stroke-linecap:square;stroke-dasharray:none"
       id="rect4079-4"
       width="26.356407"
       height="26.356407"
       x="-525.97583"
       y="-611.45056"
       ry="0" /><rect
       style="fill:#e1e7f0;fill-opacity:1;stroke:none;stroke-width:2.5449;stroke-linecap:square;stroke-dasharray:none"
       id="rect4079-0-9"
       width="17.519882"
       height="17.519882"
       x="-360.5817"
       y="-684.91016"
       ry="0" /><rect
       style="fill:#9dbbdd;fill-opacity:1;stroke:none;stroke-width:2.71605;stroke-linecap:square;stroke-dasharray:none"
       id="rect4079-0-5-9"
       width="18.698086"
       height="18.698086"
       x="-284.06625"
       y="-729.59351"
       ry="0" /></g></svg>
