<?xml version="1.0" encoding="UTF-8" standalone="no"?>
<!-- Created with Inkscape (http://www.inkscape.org/) -->

<svg
   width="315.17374mm"
   height="130.46002mm"
   viewBox="0 0 315.17373 130.46002"
   version="1.1"
   id="svg1"
   xml:space="preserve"
   inkscape:version="1.4.4 (dcaf3e7d9e, 2026-05-05)"
   sodipodi:docname="sticker-nerd.svg"
   xmlns:inkscape="http://www.inkscape.org/namespaces/inkscape"
   xmlns:sodipodi="http://sodipodi.sourceforge.net/DTD/sodipodi-0.dtd"
   xmlns="http://www.w3.org/2000/svg"
   xmlns:svg="http://www.w3.org/2000/svg"><sodipodi:namedview
     id="namedview1"
     pagecolor="#ffffff"
     bordercolor="#000000"
     borderopacity="0.25"
     inkscape:showpageshadow="2"
     inkscape:pageopacity="0.0"
     inkscape:pagecheckerboard="0"
     inkscape:deskcolor="#d1d1d1"
     inkscape:document-units="mm"
     inkscape:zoom="0.38486812"
     inkscape:cx="563.8295"
     inkscape:cy="387.1456"
     inkscape:window-width="1904"
     inkscape:window-height="1026"
     inkscape:window-x="0"
     inkscape:window-y="0"
     inkscape:window-maximized="1"
     inkscape:current-layer="layer1" /><defs
     id="defs1"><linearGradient
       id="gradientFill-1"
       x1="0.7414425"
       x2="590.86261"
       y1="3.6658268"
       y2="593.78699"
       gradientUnits="userSpaceOnUse"
       spreadMethod="pad"
       gradientTransform="matrix(0.20152783,0,0,0.13496888,13.199606,74.109526)"><stop
         offset="0"
         stop-color="rgb(203,206,208)"
         stop-opacity="1"
         id="stop1" /><stop
         offset="1"
         stop-color="rgb(132,131,139)"
         stop-opacity="1"
         id="stop2" /></linearGradient><linearGradient
       id="gradientFill-2"
       x1="301.02603"
       x2="703.0675"
       y1="151.4006"
       y2="553.44208"
       gradientUnits="userSpaceOnUse"
       spreadMethod="pad"
       gradientTransform="matrix(0.1632663,0,0,0.1665989,13.566065,74.109526)"><stop
         offset="0"
         stop-color="rgb(39,109,195)"
         stop-opacity="1"
         id="stop3" /><stop
         offset="1"
         stop-color="rgb(22,92,170)"
         stop-opacity="1"
         id="stop4" /></linearGradient></defs><g
     inkscape:label="Layer 1"
     inkscape:groupmode="layer"
     id="layer1"
     transform="translate(99.639605,-55.090696)"><rect
       style="fill:#1a1a1a;fill-opacity:1;stroke:#195fae;stroke-width:0.328175;stroke-opacity:1"
       id="rect1"
       width="314.84555"
       height="130.13185"
       x="-99.475517"
       y="55.254784"
       ry="10.00862" /><g
       id="g1"
       transform="translate(-7.9330104,-0.40220322)"><path
         d="m 129.0469,191.52046 q 12.63931,0 17.64546,-6.19574 5.00616,-6.24531 5.00616,-22.50293 0,-16.40632 -5.00616,-22.60206 -4.95659,-6.24531 -17.64546,-6.24531 h -4.75833 v 57.54604 z m 0.19826,-65.77398 q 16.95155,0 24.98122,9.021 8.02968,9.021 8.02968,28.05431 0,18.93418 -8.02968,27.95518 -8.02967,8.97143 -24.98122,8.97143 h -15.01847 v -74.00192 z"
         id="text1-5"
         style="font-size:101.511px;font-family:'DejaVu Sans Mono';-inkscape-font-specification:'DejaVu Sans Mono';fill:#185eae;stroke:#195fae;stroke-width:6.34445"
         transform="scale(1.220439,0.81937729)"
         aria-label="D" /><path
         d="M 0.93587022,120.00251 H 43.267894 v 8.1224 H 10.587189 v 21.11823 H 41.83453 v 8.1224 H 10.587189 v 25.84834 h 33.588502 v 8.12239 H 0.93587022 Z"
         id="text1-3"
         style="font-size:97.851px;font-family:'DejaVu Sans Mono';-inkscape-font-specification:'DejaVu Sans Mono';fill:#185eae;stroke:#195fae;stroke-width:6.11568"
         transform="scale(1.1720121,0.85323352)"
         aria-label="E" /><path
         d="m -56.635487,120.00251 h 12.231375 l 24.080519,58.72016 v -58.72016 h 9.316867 v 71.33376 H -23.2381 l -24.080519,-58.72015 v 58.72015 h -9.316868 z"
         id="text1-3-0"
         style="font-size:97.851px;font-family:'DejaVu Sans Mono';-inkscape-font-specification:'DejaVu Sans Mono';fill:#185eae;stroke:#195fae;stroke-width:6.11568"
         transform="scale(1.1720121,0.85323352)"
         aria-label="N" /><path
         d="m 72.811944,154.25229 c -32.840363,0 -59.462917,-17.82979 -59.462917,-39.82391 0,-21.994293 26.622554,-39.824081 59.462917,-39.824081 32.840526,0 59.462916,17.829788 59.462916,39.824081 0,21.99412 -26.62239,39.82391 -59.462916,39.82391 z m 9.101835,-64.078159 c -24.961604,0 -45.196976,12.189219 -45.196976,27.225349 0,15.03614 20.235372,27.22536 45.196976,27.22536 24.961441,0 43.382651,-8.33346 43.382651,-27.22536 0,-18.885958 -18.42121,-27.225349 -43.382651,-27.225349 z"
         fill="url(#gradientFill-1)"
         fill-rule="evenodd"
         id="path4"
         style="fill:url(#gradientFill-1);stroke-width:0.164924" /><path
         d="m 104.27436,136.28594 c 0,0 3.59898,1.08603 5.68989,2.14402 0.7255,0.36712 1.98074,1.09971 2.88617,2.06155 0.88696,0.94205 1.31939,1.89663 1.31939,1.89663 l 14.18348,23.914 -22.92446,0.0102 -10.72007,-20.13098 c 0,0 -2.19514,-3.77165 -3.545869,-4.86526 -1.126762,-0.9122 -1.607187,-1.23693 -2.721249,-1.23693 -0.775474,0 -5.446786,0 -5.446786,0 l 0.0043,26.21865 -20.285674,0.009 V 99.3327 h 40.736268 c 0,0 18.55397,0.334631 18.55397,17.98696 0,17.65233 -17.72935,18.96628 -17.72935,18.96628 z m -8.823441,-22.42573 -12.280749,-0.008 -0.0061,11.38801 12.286851,-0.004 c 0,0 5.689879,-0.0177 5.689879,-5.79296 0,-5.89142 -5.689879,-5.58318 -5.689879,-5.58318 z"
         fill="url(#gradientFill-2)"
         fill-rule="evenodd"
         id="path5"
         style="fill:url(#gradientFill-2);stroke-width:0.164924" /></g></g></svg>
